PathFileType	4	(X/Y/Z)	C:\Vicon\SynologyDrive\Alex P\Athlete_3\Athlete_3_22_07_06\static_01\marker_experimental.trc																																																																																																																																																																																																																																											
DataRate	CameraRate	NumFrames	NumMarkers	Units	OrigDataRate	OrigDataStartFrame	OrigNumFrames																																																																																																																																																																																																																																							
200	200	4	79	mm	200	346	693																																																																																																																																																																																																																																							
Frame#	Time	GLAB			RFHD			LFHD			C7			T6			SPINMOL			SPINM2			SPINM3			T12			BELTOL			BELT2			BELT3			SACROL			SACR2			SACR3			LASI			RASI			LPSI			RPSI			LTHOL			LTH2			LTH3			LKNEL			LKNEM			LFIB			LSHAOL			LSHA2			LSHA3			LMALL			LMALM			LHEE			LTOE			LM5			RTHOL			RTH2			RTH3			RKNEL			RKNEM			RFIB			RSHAOL			RSHA2			RSHA3			RMALL			RMALM			RHEE			RTOE			RM5			STRN			XIPH			LACR			LUAOL			LUA2			LUA3			LCUBL			LCUBM			LLAOL			LLA2			LLA3			LWRR			LWRU			RACR			RUAOL			RUA2			RUA3			RCUBL			RCUBM			RLAOL			RLA2			RLA3			RWRR			RWRU			Bar:BL			Bar:BR			LKJCWK			RKJCWK			RAJCWK			LAJCWK			RHJCWK			LHJCWK		
		X1	Y1	Z1	X2	Y2	Z2	X3	Y3	Z3	X4	Y4	Z4	X5	Y5	Z5	X6	Y6	Z6	X7	Y7	Z7	X8	Y8	Z8	X9	Y9	Z9	X10	Y10	Z10	X11	Y11	Z11	X12	Y12	Z12	X13	Y13	Z13	X14	Y14	Z14	X15	Y15	Z15	X16	Y16	Z16	X17	Y17	Z17	X18	Y18	Z18	X19	Y19	Z19	X20	Y20	Z20	X21	Y21	Z21	X22	Y22	Z22	X23	Y23	Z23	X24	Y24	Z24	X25	Y25	Z25	X26	Y26	Z26	X27	Y27	Z27	X28	Y28	Z28	X29	Y29	Z29	X30	Y30	Z30	X31	Y31	Z31	X32	Y32	Z32	X33	Y33	Z33	X34	Y34	Z34	X35	Y35	Z35	X36	Y36	Z36	X37	Y37	Z37	X38	Y38	Z38	X39	Y39	Z39	X40	Y40	Z40	X41	Y41	Z41	X42	Y42	Z42	X43	Y43	Z43	X44	Y44	Z44	X45	Y45	Z45	X46	Y46	Z46	X47	Y47	Z47	X48	Y48	Z48	X49	Y49	Z49	X50	Y50	Z50	X51	Y51	Z51	X52	Y52	Z52	X53	Y53	Z53	X54	Y54	Z54	X55	Y55	Z55	X56	Y56	Z56	X57	Y57	Z57	X58	Y58	Z58	X59	Y59	Z59	X60	Y60	Z60	X61	Y61	Z61	X62	Y62	Z62	X63	Y63	Z63	X64	Y64	Z64	X65	Y65	Z65	X66	Y66	Z66	X67	Y67	Z67	X68	Y68	Z68	X69	Y69	Z69	X70	Y70	Z70	X71	Y71	Z71	X72	Y72	Z72	X73	Y73	Z73	X74	Y74	Z74	X75	Y75	Z75	X76	Y76	Z76	X77	Y77	Z77	X78	Y78	Z78	X79	Y79	Z79
																																																																																																																																																																																																																																														
347	1.73	358.3354797	1572.033569	-1216.398193	300.0055847	1587.42627	-1139.60437	294.9759521	1587.937134	-1291.728394	133.0523071	1449.106689	-1212.179077	78.19108582	1244.287354	-1226.758057	73.85335541	1211.992188	-1230.966553	68.83021545	1151.121094	-1179.088867	78.17253876	1150.207397	-1227.954224	91.40533447	1109.271484	-1226.756836	68.0427475	1086.802002	-1226.009399	69.42118073	1027.218384	-1172.872925	61.7706871	1025.027222	-1222.467285	72.77347565	975.567749	-1247.901245	79.90735626	985.0769043	-1198.053833	49.11103058	927.1842651	-1209.308228	288.5397949	942.5192871	-1336.683716	292.8942871	942.0527344	-1109.123535	84.28640747	991.5231323	-1259.660889	85.17243958	990.2687988	-1170.56665	202.4120941	737.5311279	-1443.917114	153.1873474	676.961853	-1426.932251	201.614212	675.690979	-1441.300415	192.9780426	497.9206238	-1427.254272	216.5497742	466.1578369	-1283.200562	152.7692108	442.3215942	-1428.35144	145.1260223	326.2050476	-1449.813721	101.8869095	260.2519226	-1444.460815	151.2146759	264.3517456	-1450.03186	126.1449966	85.33345032	-1434.099487	169.3894806	96.30524445	-1350.458008	78.4358902	38.91156387	-1374.804199	289.6259766	47.30651474	-1391.223877	238.5587158	32.09968948	-1492.144653	175.5125122	708.2589722	-1006.351563	206.8498688	636.0132446	-992.6071167	161.069519	647.6221924	-1009.544067	160.9991455	496.8752136	-1013.820007	209.0993958	461.5089722	-1151.699463	116.955368	442.4753113	-1015.300171	91.46932983	323.1903381	-998.2840576	131.1708221	256.0108337	-983.1539307	85.11519623	262.1695557	-1002.296753	90.0572052	86.75887299	-1016.784729	153.0366974	97.00465393	-1084.273315	58.04570007	38.2389946	-1077.677002	261.5868835	43.2053566	-1022.249695	202.3486481	40.96638107	-937.2039185	281.8881836	1365.602661	-1225.022583	318.7017212	1208.035767	-1227.036499	142.6314697	1412.716431	-1400.482544	130.1670532	1346.771851	-1513.800781	120.7618561	1296.138428	-1556.001465	154.9533081	1331.455688	-1573.202637	166.4736023	1293.491577	-1681.375	188.9236603	1207.633179	-1630.896729	195.2715759	1261.041382	-1766.861572	200.5959625	1224.348877	-1821.231445	239.3991241	1255.449097	-1815.026001	308.5204773	1183.324341	-1859.938354	251.2690125	1205.426636	-1902.611816	160.5954895	1402.226196	-1041.703735	171.0187836	1335.336182	-909.3341675	221.1408234	1326.489258	-866.456543	176.0059814	1315.504883	-845.8394775	168.4860992	1288.937988	-795.3034668	223.7959747	1195.073242	-809.0390015	226.2818756	1271.085938	-672.8207397	277.0687866	1259.422974	-633.0015869	232.2983551	1246.625977	-612.9094849	314.6201782	1179.081421	-580.3804321	248.6777039	1211.574463	-543.770874	1512.088379	1285.451904	-2307.412842	1540.663086	1283.411133	0	204.7639	482.0392	-1355.2274	185.0493	479.1921	-1082.7597	119.8326	81.4255	-1049.6589	146.2272	80.2485	-1393.2799	233.1332	873.4952	-1139.4592	229.9776	873.8333	-1304.365
348	1.735	358.3050232	1572.023071	-1216.402344	299.9638977	1587.407593	-1139.599609	294.9412537	1587.92981	-1291.720337	133.0208893	1449.094116	-1212.177368	78.17527771	1244.275269	-1226.763672	73.83448029	1211.976563	-1230.964111	68.81761932	1151.102295	-1179.097534	78.17546082	1150.194824	-1227.96106	91.39541626	1109.259766	-1226.767822	68.03656006	1086.787598	-1226.020142	69.41384125	1027.199585	-1172.883423	61.76218033	1025.008789	-1222.4823	72.81719971	975.5460815	-1247.912476	79.81541443	985.1137695	-1198.152832	49.11432648	927.1622314	-1209.307983	288.5480347	942.52948	-1336.687744	292.896637	942.0628662	-1109.130249	84.28347015	991.5200195	-1259.673706	85.163414	990.2543945	-1170.579224	202.4100189	737.5257568	-1443.919556	153.1906128	676.9708862	-1426.938232	201.6209869	675.7226563	-1441.357178	192.9828796	497.9162598	-1427.259888	216.5289001	466.13974	-1283.224976	152.7679596	442.3134155	-1428.353516	145.1217194	326.2051086	-1449.815918	101.8947067	260.2453918	-1444.464966	151.2159576	264.3459473	-1450.035278	126.1356888	85.33358002	-1434.096313	169.3845825	96.2972641	-1350.446533	78.43685913	38.90830994	-1374.798706	289.6325684	47.30880356	-1391.226563	238.5584259	32.10033798	-1492.143799	175.5071869	708.2493286	-1006.371399	206.8556519	636.0151978	-992.625	161.0544891	647.6158447	-1009.560425	160.9927673	496.8728638	-1013.834717	209.1087189	461.5054321	-1151.705322	116.9442062	442.4717712	-1015.310364	91.54348755	323.2556458	-998.3814697	131.155899	255.9981689	-983.1574707	85.11592865	262.1729431	-1002.313538	90.06085205	86.75854492	-1016.784363	153.0408478	97.0021286	-1084.276978	58.04343414	38.24230576	-1077.673218	261.5889282	43.20550537	-1022.249878	202.3489227	40.96611404	-937.2043457	281.8483276	1365.61377	-1225.023804	318.6856995	1208.042969	-1227.042725	142.6719055	1412.661865	-1400.466309	130.1620636	1346.779541	-1513.816895	120.7763748	1296.12439	-1555.989136	154.970047	1331.428223	-1573.196533	166.4611359	1293.446533	-1681.356812	188.9335327	1207.593506	-1630.859985	195.2900848	1260.989502	-1766.80896	200.6302338	1224.295288	-1821.208618	239.4220581	1255.394897	-1814.987061	308.557251	1183.261475	-1859.880981	251.3171387	1205.356934	-1902.569336	160.5679626	1402.22229	-1041.714844	171.0010071	1335.333984	-909.3173828	221.117218	1326.473511	-866.4648437	176.0033569	1315.492676	-845.8416748	168.482193	1288.926147	-795.3094482	223.7879181	1195.057617	-809.0507202	226.2610321	1270.956909	-672.8966064	276.9707642	1259.419434	-633.2578735	232.3250732	1246.704102	-612.8726807	314.6268005	1179.041504	-580.4122314	248.6959534	1211.549438	-543.7861328	1512.078491	1285.450195	-2307.399414	1540.664307	1283.408569	0	204.7559	482.028	-1355.2424	185.0507	479.1891	-1082.77	119.8365	81.424	-1049.6603	146.2201	80.2445	-1393.272	233.1431	873.4995	-1139.4662	229.9918	873.8377	-1304.372
349	1.74	358.2468567	1572.012695	-1216.411255	299.9154968	1587.389526	-1139.600342	294.9064941	1587.927368	-1291.718628	132.9779816	1449.084229	-1212.17627	78.14992523	1244.253052	-1226.775391	73.81037903	1211.970581	-1230.976074	68.80606842	1151.089722	-1179.099365	78.15990448	1150.177612	-1227.96106	91.38059998	1109.254761	-1226.776245	68.02641296	1086.764771	-1226.027954	69.40345764	1027.184204	-1172.890259	61.75091553	1024.993164	-1222.494751	72.75921631	975.4660645	-1247.870728	79.82397461	985.1035767	-1198.177979	49.11540604	927.1501465	-1209.325684	288.5621338	942.5379639	-1336.697266	292.9044189	942.0783691	-1109.129639	84.27746582	991.5079956	-1259.687012	85.15972137	990.2446899	-1170.586548	202.41185	737.5239868	-1443.934448	153.1941681	676.9526367	-1426.956787	201.6205292	675.7033081	-1441.358154	192.9845886	497.9093323	-1427.26709	216.5444336	466.1352234	-1283.189453	152.7771759	442.3169556	-1428.362915	145.1306	326.2080078	-1449.827026	101.8954315	260.2404785	-1444.459229	151.2128448	264.3454895	-1450.042847	126.142189	85.33043671	-1434.097168	169.3840027	96.29541016	-1350.450317	78.42773438	38.90545273	-1374.805298	289.6274719	47.30355453	-1391.22937	238.5677185	32.09941101	-1492.149292	175.503479	708.2510986	-1006.389282	206.8480988	636.0131226	-992.6395874	161.0534668	647.6149902	-1009.573547	160.9876251	496.8688965	-1013.845154	209.1229706	461.5036316	-1151.71167	116.9458389	442.4778748	-1015.320435	91.51818085	323.2450256	-998.3880005	131.1557465	256.0037537	-983.1638794	85.10912323	262.1705322	-1002.319397	90.06224823	86.76275635	-1016.782898	153.0431366	97.00047302	-1084.278076	58.05111313	38.23458099	-1077.671875	261.5842896	43.2028923	-1022.249939	202.3508606	40.96009827	-937.2126465	281.8135681	1365.622437	-1225.034058	318.6547852	1208.05249	-1227.046631	142.6563873	1412.65918	-1400.46582	130.1797028	1346.784424	-1513.846802	120.7565765	1296.121094	-1555.965332	154.9832916	1331.4021	-1573.181519	166.451889	1293.384399	-1681.340576	188.9244537	1207.561768	-1630.822632	195.2972412	1260.946289	-1766.790039	200.6682739	1224.224731	-1821.185181	239.4476318	1255.333374	-1814.951904	308.6100769	1183.207886	-1859.824829	251.3783417	1205.289551	-1902.533447	160.5274963	1402.221069	-1041.723145	170.9972382	1335.324951	-909.3112183	221.1019592	1326.465088	-866.4839478	175.9924622	1315.478638	-845.8519897	168.4726105	1288.925903	-795.3164673	223.8926392	1195.177734	-809.0614014	226.3143311	1271.005249	-672.8416138	277.0998535	1259.350586	-633.0516357	232.3402405	1246.576172	-612.9418945	314.6244812	1179.004272	-580.4385376	248.7134857	1211.531494	-543.805542	1512.074463	1285.453735	-2307.393555	1540.67041	1283.413574	0	204.7645	482.0223	-1355.2283	185.0553	479.1863	-1082.7784	119.8383	81.4253	-1049.6599	146.2229	80.242	-1393.2747	233.1601	873.5068	-1139.4703	230.0135	873.8399	-1304.376
350	1.745	358.1977539	1571.987061	-1216.394409	299.8862	1587.38855	-1139.59375	294.8719788	1587.922485	-1291.715942	132.9361115	1449.084106	-1212.187256	78.12417603	1244.239746	-1226.784668	73.79945374	1211.962036	-1230.987427	68.7876358	1151.079224	-1179.104858	78.15732574	1150.171875	-1227.970825	91.36836243	1109.24231	-1226.778076	68.02184296	1086.751221	-1226.039429	69.40882874	1027.168091	-1172.908936	61.75819778	1024.978516	-1222.512207	72.73163605	975.4371338	-1247.877319	79.81204224	985.0797729	-1198.190186	49.11440659	927.1383667	-1209.348145	288.5682983	942.546936	-1336.710815	292.8963318	942.0854492	-1109.143799	84.28842926	991.4978638	-1259.694824	85.16278076	990.2324829	-1170.610962	202.415451	737.5258179	-1443.956055	153.1909637	676.9536133	-1426.941772	201.6231842	675.7108765	-1441.409302	192.990448	497.9114075	-1427.278198	216.5536346	466.1456299	-1283.216431	152.7752991	442.3110657	-1428.37085	145.1284332	326.2098389	-1449.842773	101.8952789	260.2403564	-1444.462891	151.2182922	264.3406982	-1450.039551	126.138298	85.32671356	-1434.100098	169.3764191	96.29520416	-1350.453369	78.44041443	38.90719986	-1374.796021	289.6217957	47.30362701	-1391.235962	238.5608368	32.10134125	-1492.150879	175.4954987	708.2493286	-1006.40332	206.8317261	636.0126343	-992.6444702	161.0406799	647.6117554	-1009.579834	160.9816895	496.874939	-1013.85144	209.1303101	461.4950867	-1151.712036	116.9446564	442.4747925	-1015.335815	91.4135437	323.2669678	-998.1349487	131.1488953	255.9960632	-983.1737671	85.11277771	262.1586914	-1002.331177	90.06660461	86.76210022	-1016.78363	153.041275	96.99697113	-1084.276123	58.04795074	38.24624634	-1077.672485	261.5793762	43.19994736	-1022.253235	202.3509521	40.96355057	-937.211731	281.7820129	1365.626831	-1225.041138	318.6321716	1208.059448	-1227.040527	142.6483612	1412.654297	-1400.468994	130.1563721	1346.786133	-1513.822266	120.7661438	1296.123535	-1555.951172	154.9688721	1331.375977	-1573.16748	166.4410553	1293.342773	-1681.33252	188.9084015	1207.516235	-1630.807373	195.2823486	1260.904907	-1766.781372	200.7124176	1224.156982	-1821.153931	239.4846039	1255.277832	-1814.92981	308.6667175	1183.164429	-1859.772339	251.4390106	1205.223877	-1902.489014	160.4831085	1402.217407	-1041.729004	170.8939667	1335.295044	-909.2526245	221.0990295	1326.476929	-866.4938354	175.984436	1315.468018	-845.8609619	168.4644623	1288.921509	-795.3173218	223.8989105	1195.169556	-809.0787354	226.2667542	1270.95166	-672.9165649	277.00354	1259.390381	-633.2687988	232.2237854	1246.651123	-612.9619141	314.625946	1178.968384	-580.4710083	248.726944	1211.503052	-543.8137817	1512.099609	1285.454224	-2307.419434	1540.67395	1283.414795	0	204.772	482.0285	-1355.2473	185.056	479.185	-1082.7817	119.8395	81.4233	-1049.6592	146.2168	80.2401	-1393.2773	233.1594	873.5095	-1139.4885	230.023	873.8439	-1304.394
